<svg width="416" height="512" viewBox="0 0 416 512" fill="none" xmlns="http://www.w3.org/2000/svg">
<g clip-path="url(#clip0_2_2)">
<path d="M207.9 15.2C208.7 19.9 224 109.7 224 144C224 196.3 196.2 233.6 155.1 248.6L168 486.7C168.7 500.4 157.8 512 144 512H80C66.3 512 55.3 500.5 56 486.7L68.9 248.6C27.7 233.6 0 196.2 0 144C0 109.6 15.3 19.9 16.1 15.2C19.3 -5.1 61.4 -5.40001 64 16.3V157.5C65.3 160.9 79.1 160.7 80 157.5C81.4 132.2 87.9 18.3 88 15.7C91.3 -5.1 132.7 -5.1 135.9 15.7C136.1 18.4 142.5 132.2 143.9 157.5C144.8 160.7 158.7 160.9 159.9 157.5V16.3C162.5 -5.30001 204.7 -5.1 207.9 15.2ZM327.1 300.9L312.1 486C310.9 500 322 512 336 512H392C405.3 512 416 501.3 416 488V24C416 10.8 405.3 -5.0714e-06 392 -5.0714e-06C309.5 -5.0714e-06 170.6 178.5 327.1 300.9Z" fill="white"/>
</g>
<defs>
<clipPath id="clip0_2_2">
<rect width="416" height="512" fill="white"/>
</clipPath>
</defs>
</svg>
